<svg width="80" height="80" viewBox="0 0 80 80" fill="none" xmlns="http://www.w3.org/2000/svg">
<path d="M56 52C52.6667 52 49.8333 50.8333 47.5 48.5C45.1667 46.1667 44 43.3333 44 40C44 36.6667 45.1667 33.8333 47.5 31.5C49.8333 29.1667 52.6667 28 56 28C59.3333 28 62.1667 29.1667 64.5 31.5C66.8333 33.8333 68 36.6667 68 40C68 43.3333 66.8333 46.1667 64.5 48.5C62.1667 50.8333 59.3333 52 56 52ZM56 44C57.1333 44 58.0827 43.616 58.848 42.848C59.616 42.0827 60 41.1333 60 40C60 38.8667 59.616 37.916 58.848 37.148C58.0827 36.3827 57.1333 36 56 36C54.8667 36 53.9173 36.3827 53.152 37.148C52.384 37.916 52 38.8667 52 40C52 41.1333 52.384 42.0827 53.152 42.848C53.9173 43.616 54.8667 44 56 44ZM32 80V68.4C32 67 32.3333 65.6827 33 64.448C33.6667 63.216 34.6 62.2333 35.8 61.5C37.9333 60.2333 40.1827 59.1827 42.548 58.348C44.916 57.516 47.3333 56.9 49.8 56.5L56 64L62.2 56.5C64.6667 56.9 67.0667 57.516 69.4 58.348C71.7333 59.1827 73.9667 60.2333 76.1 61.5C77.3 62.2333 78.2507 63.216 78.952 64.448C79.6507 65.6827 80 67 80 68.4V80H32ZM39.9 72H52.2L46.8 65.4C45.6 65.7333 44.4333 66.1667 43.3 66.7C42.1667 67.2333 41.0333 67.8 39.9 68.4V72ZM59.8 72H72V68.4C70.9333 67.7333 69.8333 67.1507 68.7 66.652C67.5667 66.1507 66.4 65.7333 65.2 65.4L59.8 72ZM8 72C5.8 72 3.916 71.2173 2.348 69.652C0.782666 68.084 0 66.2 0 64V8C0 5.8 0.782666 3.916 2.348 2.348C3.916 0.782666 5.8 0 8 0H64C66.2 0 68.084 0.782666 69.652 2.348C71.2173 3.916 72 5.8 72 8V28C70.9333 26.6667 69.7667 25.4 68.5 24.2C67.2333 23 65.7333 22.2 64 21.8V8H8V64H24.6C24.4 64.7333 24.2507 65.4667 24.152 66.2C24.0507 66.9333 24 67.6667 24 68.4V72H8ZM16 24H44C45.7333 22.6667 47.6333 21.6667 49.7 21C51.7667 20.3333 53.8667 20 56 20V16H16V24ZM16 40H36C36 38.6 36.1507 37.2333 36.452 35.9C36.7507 34.5667 37.1667 33.2667 37.7 32H16V40ZM16 56H29.8C30.5333 55.4 31.3173 54.8667 32.152 54.4C32.984 53.9333 33.8333 53.5 34.7 53.1V48H16V56ZM8 64V8V21.7V20V64Z" fill="#49A37B"/>
</svg>
