<svg width="36" height="35" viewBox="0 0 36 35" fill="none" xmlns="http://www.w3.org/2000/svg">
<path d="M10.65 0.378906H25.35C30.95 0.378906 35.5 4.77201 35.5 10.1789V24.372C35.5 26.9711 34.4306 29.4638 32.5271 31.3017C30.6236 33.1395 28.0419 34.172 25.35 34.172H10.65C5.05 34.172 0.5 29.7789 0.5 24.372V10.1789C0.5 7.57979 1.56937 5.08712 3.47287 3.24926C5.37636 1.4114 7.95805 0.378906 10.65 0.378906ZM10.3 3.75822C8.62914 3.75822 7.02671 4.39908 5.84523 5.53982C4.66375 6.68056 4 8.22773 4 9.84098V24.71C4 28.0724 6.8175 30.7927 10.3 30.7927H25.7C27.3709 30.7927 28.9733 30.1519 30.1548 29.0111C31.3363 27.8704 32 26.3232 32 24.71V9.84098C32 6.47856 29.1825 3.75822 25.7 3.75822H10.3ZM27.1875 6.2927C27.7677 6.2927 28.3241 6.51522 28.7343 6.91131C29.1445 7.3074 29.375 7.84462 29.375 8.40477C29.375 8.96493 29.1445 9.50214 28.7343 9.89823C28.3241 10.2943 27.7677 10.5168 27.1875 10.5168C26.6073 10.5168 26.0509 10.2943 25.6407 9.89823C25.2305 9.50214 25 8.96493 25 8.40477C25 7.84462 25.2305 7.3074 25.6407 6.91131C26.0509 6.51522 26.6073 6.2927 27.1875 6.2927ZM18 8.82719C20.3206 8.82719 22.5462 9.71727 24.1872 11.3016C25.8281 12.886 26.75 15.0348 26.75 17.2755C26.75 19.5161 25.8281 21.6649 24.1872 23.2493C22.5462 24.8337 20.3206 25.7237 18 25.7237C15.6794 25.7237 13.4538 24.8337 11.8128 23.2493C10.1719 21.6649 9.25 19.5161 9.25 17.2755C9.25 15.0348 10.1719 12.886 11.8128 11.3016C13.4538 9.71727 15.6794 8.82719 18 8.82719ZM18 12.2065C16.6076 12.2065 15.2723 12.7405 14.2877 13.6912C13.3031 14.6418 12.75 15.9311 12.75 17.2755C12.75 18.6198 13.3031 19.9092 14.2877 20.8598C15.2723 21.8104 16.6076 22.3444 18 22.3444C19.3924 22.3444 20.7277 21.8104 21.7123 20.8598C22.6969 19.9092 23.25 18.6198 23.25 17.2755C23.25 15.9311 22.6969 14.6418 21.7123 13.6912C20.7277 12.7405 19.3924 12.2065 18 12.2065Z" fill="#49A37B"/>
</svg>
