<svg width="107" height="26" viewBox="0 0 107 26" fill="none" xmlns="http://www.w3.org/2000/svg">
<g filter="url(#filter0_d_1717_5197)">
<path d="M5.27637 1.20312H7.36816L10.8662 10.8359L14.3555 1.20312H16.4561L11.7012 14H10.0225L5.27637 1.20312ZM4.22168 1.20312H6.26953L6.63867 10.0537V14H4.22168V1.20312ZM15.4541 1.20312H17.5107V14H15.0938V10.0537L15.4541 1.20312ZM24.0674 14.1758C23.3467 14.1758 22.6992 14.0586 22.125 13.8242C21.5508 13.5898 21.0615 13.2646 20.6572 12.8486C20.2588 12.4268 19.9512 11.9375 19.7344 11.3809C19.5234 10.8184 19.418 10.2148 19.418 9.57031V9.21875C19.418 8.48633 19.5234 7.82129 19.7344 7.22363C19.9453 6.62012 20.2441 6.10156 20.6309 5.66797C21.0176 5.23438 21.4805 4.90039 22.0195 4.66602C22.5586 4.43164 23.1533 4.31445 23.8037 4.31445C24.4775 4.31445 25.0723 4.42871 25.5879 4.65723C26.1035 4.87988 26.5342 5.19629 26.8799 5.60645C27.2256 6.0166 27.4863 6.50879 27.6621 7.08301C27.8379 7.65137 27.9258 8.28125 27.9258 8.97266V9.94824H20.4727V8.34863H25.6406V8.17285C25.6289 7.80371 25.5586 7.4668 25.4297 7.16211C25.3008 6.85156 25.1016 6.60547 24.832 6.42383C24.5625 6.23633 24.2139 6.14258 23.7861 6.14258C23.4404 6.14258 23.1387 6.21875 22.8809 6.37109C22.6289 6.51758 22.418 6.72852 22.248 7.00391C22.084 7.27344 21.9609 7.5957 21.8789 7.9707C21.7969 8.3457 21.7559 8.76172 21.7559 9.21875V9.57031C21.7559 9.96875 21.8086 10.3379 21.9141 10.6777C22.0254 11.0176 22.1865 11.3135 22.3975 11.5654C22.6143 11.8115 22.8721 12.0049 23.1709 12.1455C23.4756 12.2803 23.8213 12.3477 24.208 12.3477C24.6943 12.3477 25.1338 12.2539 25.5264 12.0664C25.9248 11.873 26.2705 11.5889 26.5635 11.2139L27.7324 12.4268C27.5332 12.7197 27.2637 13.001 26.9238 13.2705C26.5898 13.54 26.1855 13.7598 25.7109 13.9297C25.2363 14.0938 24.6885 14.1758 24.0674 14.1758ZM35.5283 4.49023H37.6377V13.71C37.6377 14.5713 37.4502 15.3008 37.0752 15.8984C36.7061 16.502 36.1875 16.959 35.5195 17.2695C34.8516 17.5859 34.0752 17.7441 33.1904 17.7441C32.8096 17.7441 32.3965 17.6914 31.9512 17.5859C31.5117 17.4805 31.0869 17.3135 30.6768 17.085C30.2725 16.8623 29.9355 16.5723 29.666 16.2148L30.7119 14.8438C31.0283 15.2129 31.3857 15.4912 31.7842 15.6787C32.1826 15.8721 32.6133 15.9688 33.0762 15.9688C33.5449 15.9688 33.9434 15.8809 34.2715 15.7051C34.6055 15.5352 34.8604 15.2832 35.0361 14.9492C35.2178 14.6211 35.3086 14.2168 35.3086 13.7363V6.66113L35.5283 4.49023ZM29.1035 9.35938V9.1748C29.1035 8.44824 29.1914 7.78906 29.3672 7.19727C29.543 6.59961 29.7949 6.08691 30.123 5.65918C30.457 5.23145 30.8584 4.90039 31.3271 4.66602C31.8018 4.43164 32.335 4.31445 32.9268 4.31445C33.5537 4.31445 34.0811 4.42871 34.5088 4.65723C34.9424 4.88574 35.2998 5.21094 35.5811 5.63281C35.8682 6.05469 36.0908 6.55566 36.249 7.13574C36.4131 7.70996 36.5391 8.34277 36.627 9.03418V9.53516C36.5449 10.209 36.4131 10.8271 36.2314 11.3896C36.0557 11.9521 35.8213 12.4443 35.5283 12.8662C35.2354 13.2822 34.8721 13.6045 34.4385 13.833C34.0049 14.0615 33.4951 14.1758 32.9092 14.1758C32.3232 14.1758 31.7959 14.0557 31.3271 13.8154C30.8584 13.5752 30.457 13.2383 30.123 12.8047C29.7949 12.3711 29.543 11.8613 29.3672 11.2754C29.1914 10.6895 29.1035 10.0508 29.1035 9.35938ZM31.4238 9.1748V9.35938C31.4238 9.76953 31.4648 10.1533 31.5469 10.5107C31.6289 10.8682 31.7549 11.1846 31.9248 11.46C32.0947 11.7295 32.3086 11.9404 32.5664 12.0928C32.8242 12.2451 33.1318 12.3213 33.4893 12.3213C33.9697 12.3213 34.3623 12.2217 34.667 12.0225C34.9775 11.8174 35.2119 11.5391 35.3701 11.1875C35.5342 10.8301 35.6396 10.4287 35.6865 9.9834V8.60352C35.6572 8.25195 35.5928 7.92676 35.4932 7.62793C35.3994 7.3291 35.2676 7.07129 35.0977 6.85449C34.9277 6.6377 34.7109 6.46777 34.4473 6.34473C34.1836 6.22168 33.8701 6.16016 33.5068 6.16016C33.1553 6.16016 32.8477 6.23926 32.584 6.39746C32.3203 6.5498 32.1035 6.76367 31.9336 7.03906C31.7637 7.31445 31.6348 7.63379 31.5469 7.99707C31.4648 8.36035 31.4238 8.75293 31.4238 9.1748ZM44.9678 11.9785V7.59277C44.9678 7.27051 44.9121 6.99219 44.8008 6.75781C44.6895 6.52344 44.5195 6.3418 44.291 6.21289C44.0625 6.08398 43.7725 6.01953 43.4209 6.01953C43.1104 6.01953 42.8379 6.07227 42.6035 6.17773C42.375 6.2832 42.1992 6.43262 42.0762 6.62598C41.9531 6.81348 41.8916 7.03027 41.8916 7.27637H39.5625C39.5625 6.88379 39.6562 6.51172 39.8438 6.16016C40.0312 5.80273 40.2979 5.48633 40.6436 5.21094C40.9951 4.92969 41.4141 4.70996 41.9004 4.55176C42.3926 4.39355 42.9434 4.31445 43.5527 4.31445C44.2734 4.31445 44.915 4.4375 45.4775 4.68359C46.0459 4.92383 46.4912 5.28711 46.8135 5.77344C47.1416 6.25977 47.3057 6.87207 47.3057 7.61035V11.7588C47.3057 12.2334 47.335 12.6406 47.3936 12.9805C47.458 13.3145 47.5518 13.6045 47.6748 13.8506V14H45.3105C45.1992 13.7598 45.1143 13.4551 45.0557 13.0859C44.9971 12.7109 44.9678 12.3418 44.9678 11.9785ZM45.293 8.20801L45.3105 9.58789H43.8428C43.4795 9.58789 43.1602 9.62598 42.8848 9.70215C42.6094 9.77246 42.3838 9.87793 42.208 10.0186C42.0322 10.1533 41.9004 10.3174 41.8125 10.5107C41.7246 10.6982 41.6807 10.9121 41.6807 11.1523C41.6807 11.3867 41.7334 11.5977 41.8389 11.7852C41.9502 11.9727 42.1084 12.1221 42.3135 12.2334C42.5244 12.3389 42.7705 12.3916 43.0518 12.3916C43.4619 12.3916 43.8193 12.3096 44.124 12.1455C44.4287 11.9756 44.666 11.7705 44.8359 11.5303C45.0059 11.29 45.0967 11.0615 45.1084 10.8447L45.7764 11.8467C45.6943 12.0869 45.5713 12.3418 45.4072 12.6113C45.2432 12.8809 45.0322 13.1328 44.7744 13.3672C44.5166 13.6016 44.2061 13.7949 43.8428 13.9473C43.4795 14.0996 43.0576 14.1758 42.5771 14.1758C41.9619 14.1758 41.4111 14.0527 40.9248 13.8066C40.4385 13.5605 40.0547 13.2236 39.7734 12.7959C39.4922 12.3682 39.3516 11.8818 39.3516 11.3369C39.3516 10.833 39.4453 10.3877 39.6328 10.001C39.8203 9.61426 40.0986 9.28906 40.4678 9.02539C40.8369 8.75586 41.2939 8.55371 41.8389 8.41895C42.3896 8.27832 43.0195 8.20801 43.7285 8.20801H45.293Z" fill="#46A37C"/>
<path d="M49.9512 1.20312H54.1084C54.9932 1.20312 55.7607 1.34668 56.4111 1.63379C57.0615 1.9209 57.5625 2.3457 57.9141 2.9082C58.2715 3.46484 58.4502 4.15039 58.4502 4.96484C58.4502 5.56836 58.3213 6.11621 58.0635 6.6084C57.8115 7.10059 57.4629 7.51367 57.0176 7.84766C56.5723 8.17578 56.0566 8.40137 55.4707 8.52441L55.0928 8.66504H50.6543L50.6367 7.74219H54.3545C55.0225 7.74219 55.5791 7.61328 56.0244 7.35547C56.4697 7.09766 56.8037 6.75781 57.0264 6.33594C57.2549 5.9082 57.3691 5.45117 57.3691 4.96484C57.3691 4.38477 57.2432 3.88379 56.9912 3.46191C56.7451 3.03418 56.3789 2.70605 55.8926 2.47754C55.4062 2.24902 54.8115 2.13477 54.1084 2.13477H51.0322V14H49.9512V1.20312ZM57.8525 14L54.5391 8.27832L55.6992 8.26953L59.0039 13.8857V14H57.8525ZM60.5947 9.39453V9.10449C60.5947 8.41309 60.6943 7.77441 60.8936 7.18848C61.0928 6.60254 61.377 6.0957 61.7461 5.66797C62.1211 5.24023 62.5693 4.90918 63.0908 4.6748C63.6123 4.43457 64.1924 4.31445 64.8311 4.31445C65.4756 4.31445 66.0586 4.43457 66.5801 4.6748C67.1016 4.90918 67.5498 5.24023 67.9248 5.66797C68.2998 6.0957 68.5869 6.60254 68.7861 7.18848C68.9854 7.77441 69.085 8.41309 69.085 9.10449V9.39453C69.085 10.0859 68.9854 10.7246 68.7861 11.3105C68.5869 11.8906 68.2998 12.3945 67.9248 12.8223C67.5557 13.25 67.1104 13.584 66.5889 13.8242C66.0674 14.0586 65.4873 14.1758 64.8486 14.1758C64.2041 14.1758 63.6211 14.0586 63.0996 13.8242C62.5781 13.584 62.1299 13.25 61.7549 12.8223C61.3799 12.3945 61.0928 11.8906 60.8936 11.3105C60.6943 10.7246 60.5947 10.0859 60.5947 9.39453ZM61.6406 9.10449V9.39453C61.6406 9.91602 61.7109 10.4111 61.8516 10.8799C61.9922 11.3428 62.1973 11.7559 62.4668 12.1191C62.7363 12.4766 63.0703 12.7578 63.4688 12.9629C63.8672 13.168 64.3271 13.2705 64.8486 13.2705C65.3643 13.2705 65.8184 13.168 66.2109 12.9629C66.6094 12.7578 66.9434 12.4766 67.2129 12.1191C67.4824 11.7559 67.6846 11.3428 67.8193 10.8799C67.96 10.4111 68.0303 9.91602 68.0303 9.39453V9.10449C68.0303 8.58887 67.96 8.09961 67.8193 7.63672C67.6846 7.17383 67.4795 6.76074 67.2041 6.39746C66.9346 6.03418 66.6006 5.74707 66.2021 5.53613C65.8037 5.3252 65.3467 5.21973 64.8311 5.21973C64.3154 5.21973 63.8584 5.3252 63.46 5.53613C63.0674 5.74707 62.7334 6.03418 62.458 6.39746C62.1885 6.76074 61.9834 7.17383 61.8428 7.63672C61.708 8.09961 61.6406 8.58887 61.6406 9.10449ZM74.7715 13.2705C75.2168 13.2705 75.6328 13.1885 76.0195 13.0244C76.4121 12.8545 76.7344 12.6055 76.9863 12.2773C77.2441 11.9434 77.3906 11.5361 77.4258 11.0557H78.4277C78.3984 11.6592 78.2139 12.1982 77.874 12.6729C77.54 13.1416 77.1006 13.5107 76.5557 13.7803C76.0166 14.0439 75.4219 14.1758 74.7715 14.1758C74.1094 14.1758 73.5234 14.0557 73.0137 13.8154C72.5098 13.5752 72.0879 13.2412 71.748 12.8135C71.4082 12.3799 71.1504 11.876 70.9746 11.3018C70.8047 10.7217 70.7197 10.0977 70.7197 9.42969V9.06055C70.7197 8.39258 70.8047 7.77148 70.9746 7.19727C71.1504 6.61719 71.4082 6.11328 71.748 5.68555C72.0879 5.25195 72.5098 4.91504 73.0137 4.6748C73.5176 4.43457 74.1006 4.31445 74.7627 4.31445C75.4424 4.31445 76.0518 4.45215 76.5908 4.72754C77.1357 5.00293 77.5693 5.39258 77.8916 5.89648C78.2197 6.40039 78.3984 6.99805 78.4277 7.68945H77.4258C77.3965 7.17969 77.2617 6.74023 77.0215 6.37109C76.7812 6.00195 76.4648 5.71777 76.0723 5.51855C75.6797 5.31934 75.2432 5.21973 74.7627 5.21973C74.2236 5.21973 73.7637 5.3252 73.3828 5.53613C73.002 5.74121 72.6914 6.02539 72.4512 6.38867C72.2168 6.74609 72.0439 7.15625 71.9326 7.61914C71.8213 8.07617 71.7656 8.55664 71.7656 9.06055V9.42969C71.7656 9.93945 71.8184 10.4258 71.9238 10.8887C72.0352 11.3457 72.208 11.7529 72.4424 12.1104C72.6826 12.4678 72.9932 12.752 73.374 12.9629C73.7607 13.168 74.2266 13.2705 74.7715 13.2705ZM81.5918 0.5V14H80.5459V0.5H81.5918ZM87.5596 4.49023L83.1123 8.90234L81.2227 10.7305L81.0645 9.70215L82.585 8.05859L86.2324 4.49023H87.5596ZM86.6455 14L82.6729 9.06055L83.2529 8.15527L87.9111 14H86.6455ZM92.8682 14.1758C92.2471 14.1758 91.6758 14.0615 91.1543 13.833C90.6387 13.6045 90.1875 13.2822 89.8008 12.8662C89.4199 12.4502 89.124 11.958 88.9131 11.3896C88.708 10.8154 88.6055 10.1885 88.6055 9.50879V9.13086C88.6055 8.39844 88.7139 7.73633 88.9307 7.14453C89.1475 6.55273 89.4463 6.0459 89.8271 5.62402C90.208 5.20215 90.6416 4.87988 91.1279 4.65723C91.6201 4.42871 92.1357 4.31445 92.6748 4.31445C93.2783 4.31445 93.8145 4.42285 94.2832 4.63965C94.752 4.85059 95.1445 5.15234 95.4609 5.54492C95.7832 5.93164 96.0264 6.3916 96.1904 6.9248C96.3545 7.45215 96.4365 8.03516 96.4365 8.67383V9.31543H89.2383V8.41895H95.3906V8.2959C95.3789 7.7627 95.2705 7.26465 95.0654 6.80176C94.8662 6.33301 94.5674 5.95215 94.1689 5.65918C93.7705 5.36621 93.2725 5.21973 92.6748 5.21973C92.2295 5.21973 91.8193 5.31348 91.4443 5.50098C91.0752 5.68848 90.7559 5.95801 90.4863 6.30957C90.2227 6.65527 90.0176 7.06836 89.8711 7.54883C89.7305 8.02344 89.6602 8.55078 89.6602 9.13086V9.50879C89.6602 10.0361 89.7363 10.5283 89.8887 10.9854C90.0469 11.4365 90.2695 11.835 90.5566 12.1807C90.8496 12.5264 91.1953 12.7959 91.5938 12.9893C91.9922 13.1826 92.4316 13.2793 92.9121 13.2793C93.4746 13.2793 93.9727 13.1768 94.4062 12.9717C94.8398 12.7607 95.2295 12.4297 95.5752 11.9785L96.2344 12.4883C96.0293 12.793 95.7715 13.0742 95.4609 13.332C95.1562 13.5898 94.79 13.7949 94.3623 13.9473C93.9346 14.0996 93.4365 14.1758 92.8682 14.1758ZM102.105 4.49023V5.35156H97.3418V4.49023H102.105ZM99.0908 2.04688H100.137V11.6885C100.137 12.1279 100.195 12.459 100.312 12.6816C100.43 12.9043 100.582 13.0537 100.77 13.1299C100.957 13.2061 101.159 13.2441 101.376 13.2441C101.534 13.2441 101.687 13.2354 101.833 13.2178C101.979 13.1943 102.111 13.1709 102.229 13.1475L102.272 14.0352C102.144 14.0762 101.977 14.1084 101.771 14.1318C101.566 14.1611 101.361 14.1758 101.156 14.1758C100.752 14.1758 100.395 14.1025 100.084 13.9561C99.7734 13.8037 99.5303 13.5459 99.3545 13.1826C99.1787 12.8135 99.0908 12.3125 99.0908 11.6797V2.04688Z" fill="#AACF9B"/>
</g>
<defs>
<filter id="filter0_d_1717_5197" x="0.222656" y="0.5" width="106.051" height="25.2422" filterUnits="userSpaceOnUse" color-interpolation-filters="sRGB">
<feFlood flood-opacity="0" result="BackgroundImageFix"/>
<feColorMatrix in="SourceAlpha" type="matrix" values="0 0 0 0 0 0 0 0 0 0 0 0 0 0 0 0 0 0 127 0" result="hardAlpha"/>
<feOffset dy="4"/>
<feGaussianBlur stdDeviation="2"/>
<feComposite in2="hardAlpha" operator="out"/>
<feColorMatrix type="matrix" values="0 0 0 0 0 0 0 0 0 0 0 0 0 0 0 0 0 0 0.25 0"/>
<feBlend mode="normal" in2="BackgroundImageFix" result="effect1_dropShadow_1717_5197"/>
<feBlend mode="normal" in="SourceGraphic" in2="effect1_dropShadow_1717_5197" result="shape"/>
</filter>
</defs>
</svg>
