<svg width="80" height="80" viewBox="0 0 80 80" fill="none" xmlns="http://www.w3.org/2000/svg">
<path d="M50.9875 53.3067C54.8506 53.3067 57.9858 56.7894 57.9858 61.0806L57.9818 65.354C58.4497 75.0825 51.9393 80 40.2581 80C28.621 80 21.9946 75.158 21.9946 65.5228V61.0806C21.9946 56.7894 25.1298 53.3067 28.9929 53.3067H50.9875ZM50.9875 59.97H28.9929C28.7277 59.97 28.4735 60.087 28.286 60.2953C28.0985 60.5036 27.9931 60.786 27.9931 61.0806V65.5228C27.9931 70.7468 31.5403 73.3367 40.2581 73.3367C48.928 73.3367 52.2352 70.8313 51.9873 65.5317V61.0806C51.9873 60.786 51.8819 60.5036 51.6944 60.2953C51.5069 60.087 51.2527 59.97 50.9875 59.97ZM6.99828 31.0956H24.498C23.9941 33.2702 23.8652 35.5311 24.1181 37.7589H6.99828C6.73313 37.7589 6.47884 37.8759 6.29135 38.0842C6.10386 38.2924 5.99853 38.5749 5.99853 38.8695V43.3117C5.99853 48.5357 9.54566 51.1255 18.2635 51.1255C20.1111 51.1255 21.7147 51.0101 23.0903 50.7835C20.8022 52.3938 19.1313 54.8875 18.3995 57.7844L18.2635 57.7889C6.62638 57.7889 0 52.9469 0 43.3117V38.8695C0 34.5783 3.13523 31.0956 6.99828 31.0956ZM72.9821 31.0956C76.8452 31.0956 79.9804 34.5783 79.9804 38.8695L79.9764 43.1429C80.4443 52.8713 73.9339 57.7889 62.2527 57.7889L61.5769 57.78C60.8228 54.8039 59.0827 52.255 56.7061 50.6458C58.2537 50.9656 60.0933 51.1255 62.2527 51.1255C70.9226 51.1255 74.2298 48.6201 73.9819 43.3206V38.8695C73.9819 38.5749 73.8765 38.2924 73.689 38.0842C73.5016 37.8759 73.2473 37.7589 72.9821 37.7589H55.8663C56.1137 35.5306 55.9835 33.2706 55.4824 31.0956H72.9821ZM39.9902 22.2111C41.5657 22.2111 43.1257 22.5558 44.5813 23.2255C46.0368 23.8953 47.3594 24.8769 48.4734 26.1144C49.5874 27.3519 50.4711 28.821 51.074 30.4379C51.6769 32.0548 51.9873 33.7877 51.9873 35.5378C51.9873 37.2879 51.6769 39.0208 51.074 40.6377C50.4711 42.2545 49.5874 43.7237 48.4734 44.9612C47.3594 46.1987 46.0368 47.1803 44.5813 47.85C43.1257 48.5198 41.5657 48.8645 39.9902 48.8645C36.8084 48.8645 33.7569 47.4604 31.507 44.9612C29.2571 42.4619 27.9931 39.0722 27.9931 35.5378C27.9931 32.0033 29.2571 28.6136 31.507 26.1144C33.7569 23.6152 36.8084 22.2111 39.9902 22.2111ZM39.9902 28.8745C39.2025 28.8745 38.4224 29.0468 37.6947 29.3817C36.9669 29.7165 36.3056 30.2073 35.7486 30.8261C35.1916 31.4448 34.7497 32.1794 34.4483 32.9878C34.1468 33.7963 33.9917 34.6627 33.9917 35.5378C33.9917 36.4128 34.1468 37.2793 34.4483 38.0877C34.7497 38.8962 35.1916 39.6307 35.7486 40.2495C36.3056 40.8682 36.9669 41.359 37.6947 41.6939C38.4224 42.0288 39.2025 42.2011 39.9902 42.2011C41.5811 42.2011 43.1069 41.4991 44.2318 40.2495C45.3567 38.9999 45.9887 37.305 45.9887 35.5378C45.9887 33.7706 45.3567 32.0757 44.2318 30.8261C43.1069 29.5765 41.5811 28.8745 39.9902 28.8745ZM17.9956 0C21.1774 0 24.2289 1.40406 26.4788 3.90329C28.7287 6.40253 29.9927 9.79222 29.9927 13.3267C29.9927 16.8611 28.7287 20.2508 26.4788 22.7501C24.2289 25.2493 21.1774 26.6533 17.9956 26.6533C14.8138 26.6533 11.7623 25.2493 9.51239 22.7501C7.2625 20.2508 5.99853 16.8611 5.99853 13.3267C5.99853 9.79222 7.2625 6.40253 9.51239 3.90329C11.7623 1.40406 14.8138 0 17.9956 0ZM61.9848 0C65.1666 0 68.2181 1.40406 70.468 3.90329C72.7179 6.40253 73.9819 9.79222 73.9819 13.3267C73.9819 16.8611 72.7179 20.2508 70.468 22.7501C68.2181 25.2493 65.1666 26.6533 61.9848 26.6533C58.803 26.6533 55.7515 25.2493 53.5016 22.7501C51.2517 20.2508 49.9877 16.8611 49.9877 13.3267C49.9877 9.79222 51.2517 6.40253 53.5016 3.90329C55.7515 1.40406 58.803 0 61.9848 0ZM17.9956 6.66333C16.4047 6.66333 14.8789 7.36536 13.754 8.61498C12.629 9.8646 11.9971 11.5594 11.9971 13.3267C11.9971 15.0939 12.629 16.7887 13.754 18.0384C14.8789 19.288 16.4047 19.99 17.9956 19.99C19.5865 19.99 21.1122 19.288 22.2372 18.0384C23.3621 16.7887 23.9941 15.0939 23.9941 13.3267C23.9941 11.5594 23.3621 9.8646 22.2372 8.61498C21.1122 7.36536 19.5865 6.66333 17.9956 6.66333ZM61.9848 6.66333C60.3939 6.66333 58.8682 7.36536 57.7432 8.61498C56.6183 9.8646 55.9863 11.5594 55.9863 13.3267C55.9863 15.0939 56.6183 16.7887 57.7432 18.0384C58.8682 19.288 60.3939 19.99 61.9848 19.99C63.5757 19.99 65.1015 19.288 66.2264 18.0384C67.3514 16.7887 67.9833 15.0939 67.9833 13.3267C67.9833 11.5594 67.3514 9.8646 66.2264 8.61498C65.1015 7.36536 63.5757 6.66333 61.9848 6.66333Z" fill="#49A37B"/>
</svg>
