<svg width="34" height="28" viewBox="0 0 34 28" fill="none" xmlns="http://www.w3.org/2000/svg">
<path d="M33.5608 3.50065C32.3417 4.05482 31.0275 4.41899 29.6658 4.59315C31.0592 3.75399 32.1358 2.42399 32.6425 0.824818C31.3283 1.61648 29.8717 2.17065 28.3358 2.48732C27.085 1.12565 25.3275 0.333984 23.3325 0.333984C19.6117 0.333984 16.5717 3.37399 16.5717 7.12649C16.5717 7.66482 16.635 8.18732 16.7458 8.67815C11.1092 8.39315 6.09 5.68565 2.74917 1.58482C2.16333 2.58232 1.83083 3.75399 1.83083 4.98899C1.83083 7.34815 3.01833 9.43815 4.855 10.6257C3.73083 10.6257 2.68583 10.309 1.7675 9.83399V9.88149C1.7675 13.1748 4.11083 15.9298 7.21417 16.5473C6.21782 16.82 5.17182 16.8579 4.15833 16.6582C4.58838 18.0079 5.4306 19.189 6.56661 20.0353C7.70262 20.8816 9.07529 21.3507 10.4917 21.3765C8.09075 23.2772 5.11466 24.3046 2.0525 24.2898C1.51417 24.2898 0.975833 24.2582 0.4375 24.1948C3.44583 26.1265 7.02417 27.2507 10.8558 27.2507C23.3325 27.2507 30.1883 16.8957 30.1883 7.91815C30.1883 7.61732 30.1883 7.33232 30.1725 7.03149C31.5025 6.08149 32.6425 4.87815 33.5608 3.50065Z" fill="#49A37B"/>
</svg>
